<?xml version="1.0" encoding="UTF-8" standalone="no"?>
<!-- Created with Inkscape (http://www.inkscape.org/) -->

<svg
   width="219mm"
   height="193mm"
   viewBox="0 0 219 193"
   version="1.1"
   id="svg1"
   inkscape:version="1.3.2 (091e20e, 2023-11-25, custom)"
   sodipodi:docname="750p.svg"
   xmlns:inkscape="http://www.inkscape.org/namespaces/inkscape"
   xmlns:sodipodi="http://sodipodi.sourceforge.net/DTD/sodipodi-0.dtd"
   xmlns:xlink="http://www.w3.org/1999/xlink"
   xmlns="http://www.w3.org/2000/svg"
   xmlns:svg="http://www.w3.org/2000/svg">
  <sodipodi:namedview
     id="namedview1"
     pagecolor="#ffffff"
     bordercolor="#000000"
     borderopacity="0.25"
     inkscape:showpageshadow="2"
     inkscape:pageopacity="0.0"
     inkscape:pagecheckerboard="0"
     inkscape:deskcolor="#d1d1d1"
     inkscape:document-units="mm"
     showguides="true"
     inkscape:zoom="0.5"
     inkscape:cx="177"
     inkscape:cy="475"
     inkscape:window-width="1600"
     inkscape:window-height="829"
     inkscape:window-x="-8"
     inkscape:window-y="-8"
     inkscape:window-maximized="1"
     inkscape:current-layer="layer1">
    <sodipodi:guide
       position="149.89801,265.0886"
       orientation="1,0"
       id="guide6"
       inkscape:locked="false" />
    <sodipodi:guide
       position="118.94635,84.494954"
       orientation="0,-1"
       id="guide7"
       inkscape:locked="false" />
    <sodipodi:guide
       position="49.998988,189.57905"
       orientation="1,0"
       id="guide8"
       inkscape:locked="false" />
    <sodipodi:guide
       position="99.999087,157.72562"
       orientation="1,0"
       id="guide9"
       inkscape:locked="false" />
    <sodipodi:guide
       position="18.942496,144.9937"
       orientation="0,-1"
       id="guide10"
       inkscape:locked="false" />
    <sodipodi:guide
       position="-34.924976,-1.8500057"
       orientation="0,-1"
       id="guide1"
       inkscape:locked="false" />
  </sodipodi:namedview>
  <defs
     id="defs1">
    <rect
       x="307.61258"
       y="-46.394028"
       width="158.61801"
       height="292.67725"
       id="rect5" />
    <linearGradient
       inkscape:collect="always"
       xlink:href="#linearGradient55"
       id="linearGradient364"
       gradientUnits="userSpaceOnUse"
       gradientTransform="matrix(0.32858102,0,0,0.23351687,343.08592,-41.091681)"
       x1="70.570518"
       y1="86.609268"
       x2="184.16264"
       y2="86.609268" />
    <linearGradient
       id="linearGradient55"
       inkscape:collect="always">
      <stop
         style="stop-color:#1c1c1c;stop-opacity:1;"
         offset="0"
         id="stop52" />
      <stop
         style="stop-color:#767676;stop-opacity:1;"
         offset="0.49333331"
         id="stop53" />
      <stop
         style="stop-color:#858585;stop-opacity:1;"
         offset="0.62833333"
         id="stop54" />
      <stop
         style="stop-color:#2c2c2c;stop-opacity:1;"
         offset="1"
         id="stop55" />
    </linearGradient>
    <linearGradient
       inkscape:collect="always"
       xlink:href="#linearGradient357"
       id="linearGradient365"
       gradientUnits="userSpaceOnUse"
       gradientTransform="matrix(0.34071673,0,0,0.26229036,341.5076,-207.9456)"
       x1="70.570518"
       y1="86.609268"
       x2="184.16264"
       y2="86.609268" />
    <linearGradient
       id="linearGradient357"
       inkscape:collect="always">
      <stop
         style="stop-color:#2d2c2c;stop-opacity:1;"
         offset="0"
         id="stop358" />
      <stop
         style="stop-color:#868686;stop-opacity:1;"
         offset="0.49333331"
         id="stop360" />
      <stop
         style="stop-color:#828282;stop-opacity:1;"
         offset="0.62833333"
         id="stop361" />
      <stop
         style="stop-color:#242424;stop-opacity:1;"
         offset="1"
         id="stop359" />
    </linearGradient>
    <linearGradient
       inkscape:collect="always"
       xlink:href="#linearGradient59"
       id="linearGradient359"
       x1="70.570518"
       y1="86.609268"
       x2="184.16264"
       y2="86.609268"
       gradientUnits="userSpaceOnUse"
       gradientTransform="matrix(0.43493445,0,0,0.73631729,-440.9682,88.386802)" />
    <linearGradient
       id="linearGradient59"
       inkscape:collect="always">
      <stop
         style="stop-color:#202020;stop-opacity:1;"
         offset="0"
         id="stop56" />
      <stop
         style="stop-color:#7c7c7c;stop-opacity:1;"
         offset="0.49333331"
         id="stop57" />
      <stop
         style="stop-color:#717171;stop-opacity:1;"
         offset="0.62833333"
         id="stop58" />
      <stop
         style="stop-color:#171616;stop-opacity:1;"
         offset="1"
         id="stop59" />
    </linearGradient>
    <linearGradient
       inkscape:collect="always"
       xlink:href="#linearGradient51"
       id="linearGradient362"
       gradientUnits="userSpaceOnUse"
       gradientTransform="matrix(0.43784178,0,0,0.7651584,329.53387,-111.55321)"
       x1="70.570518"
       y1="86.609268"
       x2="184.16264"
       y2="86.609268" />
    <linearGradient
       id="linearGradient51"
       inkscape:collect="always">
      <stop
         style="stop-color:#1b1b1b;stop-opacity:1;"
         offset="0"
         id="stop48" />
      <stop
         style="stop-color:#787878;stop-opacity:1;"
         offset="0.49333331"
         id="stop49" />
      <stop
         style="stop-color:#767676;stop-opacity:1;"
         offset="0.62833333"
         id="stop50" />
      <stop
         style="stop-color:#302f2f;stop-opacity:1;"
         offset="1"
         id="stop51" />
    </linearGradient>
  </defs>
  <g
     inkscape:label="Layer 1"
     inkscape:groupmode="layer"
     id="layer1">
    <rect
       style="fill:#ffffff;stroke-width:0.313424"
       id="rect1"
       width="227.54167"
       height="200.02499"
       x="-4.2333331"
       y="-3.7041681" />
    <circle
       id="path1"
       style="fill:#000000;stroke:#000000;stroke-width:0.264583"
       cx="63.689587"
       cy="80.732201"
       r="0.048185274" />
    <circle
       id="path2"
       style="fill:#000000;stroke:#000000;stroke-width:0.264583"
       cx="106.37658"
       cy="85.435028"
       r="0.048185274" />
    <path
       style="fill:#00e025;fill-opacity:1;stroke:#000000;stroke-width:0.610549;stroke-dasharray:none;stroke-dashoffset:0;stroke-opacity:1"
       d="m 15.715642,173.92205 -0.02695,-114.644204 23.46342,0.0331 0.0104,-38.566705 49.988295,-0.02157 3.7e-4,38.555205 26.306373,-0.0189 0.0127,114.660264 z"
       id="path3"
       sodipodi:nodetypes="ccccccccc" />
    <ellipse
       style="fill:#e00000;fill-opacity:1;stroke:#000000;stroke-width:0.644271;stroke-opacity:1"
       id="path4"
       cx="65.383804"
       cy="104.68559"
       rx="4.0786185"
       ry="4.2120433"
       inkscape:transform-center-x="-0.2668497"
       inkscape:transform-center-y="-0.2668497" />
    <g
       id="g5"
       transform="translate(-33.531497,-3.9809407)">
      <path
         style="fill:#000000;fill-opacity:1;stroke:none;stroke-width:0.529167"
         d="m 43.76335,147.30103 v -30.68771 h 48.299797 v 14.67673 h 13.876183 l 0.13342,-14.54331 47.63267,0.13343 0.13342,30.42086 z"
         id="path1-7"
         sodipodi:nodetypes="ccccccccc" />
      <path
         style="fill:#000000;fill-opacity:1;stroke:none;stroke-width:0.529167"
         d="m 95.932465,131.82375 v -15.21043 h 6.137555 v 15.47728 z"
         id="path2-9"
         sodipodi:nodetypes="ccccc" />
    </g>
    <text
       xml:space="preserve"
       transform="matrix(0.26458333,0,0,0.26458333,-34.48423,54.495099)"
       id="text5"
       style="font-size:48px;font-family:Bahnschrift;-inkscape-font-specification:Bahnschrift;text-align:center;white-space:pre;shape-inside:url(#rect5);shape-padding:1.00857;display:inline;fill:#000000;fill-opacity:1;stroke:none;stroke-width:2;stroke-opacity:1"><tspan
         x="332.62497"
         y="14.663608"
         id="tspan3"><tspan
           style="font-size:66.6667px;font-family:Arial;-inkscape-font-specification:Arial"
           id="tspan2">№7 </tspan></tspan><tspan
         x="320.26038"
         y="97.996982"
         id="tspan7"><tspan
           style="font-size:66.6667px;font-family:Arial;-inkscape-font-specification:Arial"
           id="tspan4">50м</tspan><tspan
           style="font-weight:bold;font-family:Arial;-inkscape-font-specification:'Arial Bold'"
           id="tspan5">  </tspan></tspan></text>
    <g
       id="g2"
       inkscape:label="sights"
       transform="translate(-21.600587,5.9090143)">
      <g
         id="Слой_2"
         transform="matrix(0.32163448,0,0,0.32163448,155.15312,17.258387)"
         style="fill:#000000;fill-opacity:1;stroke:#2b2b2b;stroke-opacity:0.554703"
         inkscape:label="Main">
        <path
           style="opacity:1;fill:#303030;fill-opacity:1;stroke:#757575;stroke-opacity:0.554703"
           d="m 30.465698,413.06675 -0.239275,30.47697 7.310345,11.24233 152.275362,0.10983 8.51063,-12.07519 0.16919,-29.93072 z"
           id="path61"
           sodipodi:nodetypes="ccccccc" />
        <path
           class="st0"
           d="m 75.34406,9.9608564 76.92408,-0.00115 0.0194,62.1591226 12.81248,0.005 -0.0161,340.607191 c -44.522,23.82552 -73.559213,11.82801 -102.675097,0.0125 0.166666,-104.1 -0.02866,-340.682541 -0.02866,-340.682541 l 12.95855,0.01332 z"
           id="path1-4"
           sodipodi:nodetypes="ccccccccc"
           style="opacity:1;fill:#4e4e4e;fill-opacity:1;stroke:#0a0a0a;stroke-miterlimit:10;stroke-opacity:0.554703" />
        <path
           style="fill:#8c8c8c;fill-opacity:1;stroke:#2d2d2d;stroke-width:0.489071;stroke-opacity:0.554703"
           d="m 30.397571,443.77701 7.128345,11.01725 152.252594,0.0877 8.37203,-11.82515 z"
           id="path61-6"
           sodipodi:nodetypes="ccccc" />
        <rect
           style="fill:#626262;fill-opacity:1;stroke:#2e2e2e;stroke-width:1.12547;stroke-opacity:0.554703"
           id="rect59"
           width="11.374527"
           height="375.87451"
           x="94.062737"
           y="10.562737"
           transform="translate(14.768106,-0.59072426)"
           inkscape:label="rect59" />
        <rect
           style="fill:#4e4e4e;fill-opacity:1;stroke:#0f0f0f;stroke-width:0.485;stroke-dasharray:none;stroke-opacity:0.554703"
           id="rect59-6"
           width="9.7148905"
           height="28.241127"
           x="109.21827"
           y="426.7121"
           inkscape:label="rect59" />
      </g>
      <g
         id="Слой_4"
         transform="matrix(0.32163448,0,0,0.32163448,155.15312,10.825693)"
         inkscape:label="Labels">
        <g
           id="g15">
          <g
             id="g14">
            <path
               class="st3"
               d="m 76.362897,370.8 v -25.6 h 3.6 v 25.6 z m 2.2,-22.2 v -3.4 h 14.2 v 3.4 z m 12.3,22.2 v -25.6 h 3.6 v 25.6 z"
               id="path14"
               style="fill:#e00000;fill-opacity:1" />
          </g>
        </g>
        <g
           id="g17">
          <g
             id="g16">
            <path
               class="st3"
               d="M 145.64152,307.4 V 333 h -3.6 v -21.7 l -3.6,2.2 v -3.7 l 3.6,-2.4 z"
               id="path15"
               style="fill:#ffffff" />
          </g>
        </g>
        <g
           id="g19">
          <g
             id="g18">
            <path
               class="st3"
               d="m 78.391518,311.4371 v -3.1 l 8.9,-11.9 c 0.5,-0.7 0.9,-1.4 1.2,-2.1 0.3,-0.7 0.4,-1.4 0.4,-2.1 v 0 c 0,-1 -0.3,-1.8 -0.9,-2.4 -0.6,-0.6 -1.4,-0.8 -2.5,-0.8 -1,0 -1.9,0.3 -2.5,0.9 -0.6,0.6 -1,1.5 -1.2,2.6 v 0 h -3.7 v 0 c 0.3,-2.2 1.1,-3.9 2.4,-5.1 1.3,-1.2 2.9,-1.8 5,-1.8 2.3,0 4.1,0.6 5.3,1.7 1.3,1.2 1.9,2.8 1.9,4.9 v 0 c 0,0.9 -0.2,1.8 -0.6,2.8 -0.4,1 -0.9,1.9 -1.6,2.8 l -7.4,10.1 h 9.7 v 3.4 h -14.4 z"
               id="path17"
               style="fill:#ffffff" />
          </g>
        </g>
        <g
           id="g21">
          <g
             id="g20">
            <path
               class="st3"
               d="m 141.85,292.025 c -1.4,0 -2.7,-0.3 -3.8,-0.8 -1.1,-0.5 -2,-1.3 -2.6,-2.3 -0.6,-1 -1.1,-2.2 -1.3,-3.6 h 3.7 c 0.2,1.1 0.6,1.9 1.3,2.4 0.7,0.5 1.6,0.8 2.7,0.8 1.2,0 2.1,-0.3 2.8,-0.9 0.7,-0.6 1,-1.5 1,-2.7 v -0.8 c 0,-1.3 -0.3,-2.3 -0.9,-3 -0.6,-0.7 -1.5,-1 -2.6,-1 h -1.9 v -3.4 h 1.8 c 1,0 1.8,-0.3 2.3,-0.9 0.5,-0.6 0.8,-1.4 0.8,-2.5 v -0.8 c 0,-1 -0.3,-1.8 -0.9,-2.3 -0.6,-0.5 -1.4,-0.8 -2.5,-0.8 -0.9,0 -1.7,0.3 -2.3,0.8 -0.6,0.5 -1.1,1.3 -1.3,2.4 h -3.6 c 0.4,-2.1 1.2,-3.7 2.4,-4.9 1.2,-1.2 2.9,-1.7 4.8,-1.7 2.2,0 3.9,0.6 5.1,1.7 1.2,1.1 1.8,2.8 1.8,4.9 v 0.4 c 0,1.3 -0.3,2.4 -1,3.3 -0.7,0.9 -1.7,1.6 -2.9,2.1 1.4,0.3 2.5,1 3.2,2 0.7,1 1.2,2.4 1.2,4.1 v 0.4 c 0,2.2 -0.6,4 -1.9,5.2 -1.3,1.2 -3,1.9 -5.4,1.9 z"
               id="path19"
               style="fill:#ffffff" />
          </g>
        </g>
        <g
           id="g23">
          <g
             id="g22">
            <path
               class="st3"
               d="m 76.428621,265.70565 v -3.1 l 8.6,-18.5 h 3.7 l -8.4,18.3 h 12.5 v 3.3 z m 11.1,4 v -15 h 3.5 v 15 z"
               id="path21"
               style="fill:#ffffff" />
          </g>
        </g>
        <g
           id="g25">
          <g
             id="g24">
            <path
               class="st3"
               d="m 141.975,251.05 c -1.9,0 -3.5,-0.6 -4.8,-1.7 -1.3,-1.1 -2,-2.7 -2.3,-4.7 v 0 h 3.6 v 0 c 0.1,0.9 0.5,1.7 1.1,2.2 0.6,0.5 1.4,0.8 2.4,0.8 1.1,0 2,-0.4 2.7,-1.2 0.7,-0.8 0.9,-1.8 0.9,-3.2 v -2.1 c 0,-1.4 -0.3,-2.5 -0.9,-3.2 -0.6,-0.7 -1.5,-1.1 -2.7,-1.1 -0.6,0 -1.2,0.2 -1.8,0.5 -0.6,0.3 -1.1,0.8 -1.5,1.5 h -3.3 v -13.6 h 13 v 3.4 h -9.4 v 5.7 c 0.4,-0.4 0.9,-0.6 1.5,-0.8 0.6,-0.2 1.1,-0.3 1.7,-0.3 2.2,0 3.9,0.7 5.2,2 1.3,1.3 1.8,3.3 1.8,5.8 v 2.1 c 0,2.5 -0.6,4.4 -1.9,5.8 -1.3,1.4 -3,2.1 -5.3,2.1 z"
               id="path23"
               style="fill:#ffffff" />
          </g>
        </g>
        <g
           id="g27">
          <g
             id="g26">
            <path
               class="st3"
               d="m 84.337897,228.075 c -2.3,0 -4,-0.7 -5.3,-2 -1.3,-1.3 -1.9,-3.2 -1.9,-5.7 v 0 c 0,-1.1 0.2,-2.3 0.5,-3.5 0.3,-1.2 0.7,-2.4 1.3,-3.6 l 5.6,-11 h 3.9 l -6.5,12.7 v -0.6 c 0.6,-1.2 1.7,-1.7 3.3,-1.7 2,0 3.6,0.7 4.7,2 1.1,1.3 1.7,3.2 1.7,5.6 v 0 c 0,2.5 -0.6,4.4 -1.9,5.8 -1.3,1.4 -3.1,2 -5.4,2 z m 0,-3.5 c 1.1,0 2,-0.4 2.6,-1.1 0.6,-0.7 0.9,-1.7 0.9,-3 v 0 c 0,-1.4 -0.3,-2.5 -1,-3.3 -0.7,-0.8 -1.6,-1.2 -2.8,-1.2 -1.1,0 -1.9,0.4 -2.5,1.2 -0.6,0.8 -0.9,1.9 -0.9,3.3 v 0 c 0,1.3 0.3,2.3 0.9,3 0.6,0.7 1.7,1.1 2.8,1.1 z"
               id="path25"
               style="fill:#ffffff" />
          </g>
        </g>
        <g
           id="g29">
          <g
             id="g28">
            <path
               class="st3"
               d="m 148.8,184.35 v 3.2 l -6.6,22.4 h -3.8 l 6.6,-22.2 h -6.5 v 3.7 h -3.6 v -7.1 z"
               id="path27"
               style="fill:#ffffff" />
          </g>
        </g>
        <g
           id="g31">
          <g
             id="g30">
            <path
               class="st3"
               d="m 85.362897,186.55 c -1.6,0 -2.9,-0.3 -4.1,-0.9 -1.2,-0.6 -2.1,-1.4 -2.7,-2.5 -0.6,-1.1 -1,-2.3 -1,-3.7 v -0.4 c 0,-1.3 0.3,-2.5 1,-3.6 0.7,-1.1 1.5,-2 2.6,-2.5 -0.9,-0.5 -1.6,-1.2 -2.2,-2.1 -0.6,-0.9 -0.8,-1.9 -0.8,-2.9 v -0.6 c 0,-2 0.7,-3.7 2,-4.9 1.3,-1.2 3.1,-1.8 5.2,-1.8 2.1,0 3.9,0.6 5.2,1.8 1.3,1.2 2,2.9 2,4.9 v 0.6 c 0,1.1 -0.3,2 -0.8,3 -0.5,1 -1.3,1.6 -2.2,2.1 1.1,0.6 1.9,1.4 2.6,2.5 0.7,1.1 1,2.3 1,3.6 v 0.4 c 0,1.4 -0.3,2.7 -1,3.7 -0.7,1 -1.5,1.9 -2.7,2.5 -1.2,0.6 -2.6,0.8 -4.1,0.8 z m 0,-3.4 c 1.3,0 2.3,-0.4 3,-1.1 0.7,-0.7 1.2,-1.7 1.2,-2.8 v -0.2 c 0,-1.2 -0.4,-2.1 -1.2,-2.9 -0.8,-0.8 -1.8,-1.1 -3,-1.1 -1.2,0 -2.3,0.4 -3,1.1 -0.7,0.7 -1.2,1.7 -1.2,2.9 v 0.3 c 0,1.2 0.4,2.1 1.2,2.8 0.8,0.7 1.7,1 3,1 z m 0,-11.6 c 1.1,0 2,-0.3 2.6,-1 0.6,-0.7 1,-1.6 1,-2.7 v -0.2 c 0,-1.1 -0.3,-2 -1,-2.6 -0.7,-0.6 -1.5,-1 -2.6,-1 -1.1,0 -2,0.3 -2.6,1 -0.6,0.7 -1,1.5 -1,2.6 v 0.3 c 0,1.1 0.3,2 1,2.7 0.7,0.7 1.5,0.9 2.6,0.9 z"
               id="path29"
               style="fill:#ffffff" />
          </g>
        </g>
        <g
           id="g33">
          <g
             id="g32">
            <path
               class="st3"
               d="m 138.43428,167.375 6.4,-12.7 v 0.6 c -0.3,0.6 -0.8,0.9 -1.4,1.2 -0.6,0.3 -1.3,0.4 -2.1,0.4 -1.8,0 -3.3,-0.7 -4.4,-2 -1.1,-1.3 -1.7,-3.2 -1.7,-5.4 v 0 c 0,-2.5 0.6,-4.4 1.9,-5.8 1.3,-1.4 3,-2 5.3,-2 2.3,0 4,0.7 5.3,2.1 1.3,1.4 1.9,3.3 1.9,5.8 v 0 c 0,1 -0.2,2.2 -0.5,3.4 -0.3,1.2 -0.8,2.4 -1.3,3.6 l -5.4,11 h -4 z m 4,-13.8 c 1.1,0 2,-0.4 2.6,-1.1 0.6,-0.7 0.9,-1.8 0.9,-3.2 v 0 c 0,-1.3 -0.3,-2.4 -0.9,-3.1 -0.6,-0.7 -1.5,-1.1 -2.6,-1.1 -1.1,0 -2,0.4 -2.6,1.1 -0.6,0.7 -0.9,1.8 -0.9,3.1 v 0 c 0,1.4 0.3,2.5 0.9,3.2 0.6,0.7 1.5,1.1 2.6,1.1 z"
               id="path31"
               style="fill:#ffffff" />
          </g>
        </g>
        <g
           id="g35">
          <g
             id="g34">
            <path
               class="st3"
               d="m 77.7,120.2 v 25.6 h -3.6 v -21.7 l -3.6,2.2 v -3.7 l 3.6,-2.4 z"
               id="path33"
               style="fill:#ffffff" />
            <path
               class="st3"
               d="m 90.8,146 c -2.4,0 -4.3,-0.7 -5.5,-2 -1.2,-1.3 -1.8,-3.1 -1.8,-5.3 v -11.6 c 0,-2.3 0.6,-4 1.8,-5.3 1.2,-1.3 3,-1.9 5.4,-1.9 2.4,0 4.2,0.6 5.5,1.9 1.3,1.3 1.8,3.1 1.8,5.3 v 11.6 c 0,2.3 -0.6,4 -1.8,5.3 -1.2,1.3 -3,2 -5.4,2 z m 0,-3.4 c 1.3,0 2.3,-0.3 2.8,-1 0.5,-0.7 0.9,-1.6 0.9,-2.8 v -11.6 c 0,-1.2 -0.3,-2.2 -0.9,-2.8 -0.6,-0.6 -1.5,-1 -2.8,-1 -1.3,0 -2.3,0.3 -2.8,1 -0.5,0.7 -0.9,1.6 -0.9,2.8 v 11.6 c 0,1.2 0.3,2.1 0.9,2.8 0.6,0.7 1.5,1 2.8,1 z"
               id="path34"
               style="fill:#ffffff" />
          </g>
        </g>
        <g
           id="Слой_3"
           inkscape:label="Линии">
          <line
             class="st2"
             x1="68.469948"
             y1="153.07042"
             x2="103.94899"
             y2="153.02957"
             id="line3"
             style="fill:#ffffff;stroke:#ffffff;stroke-width:2;stroke-miterlimit:10;stroke-dasharray:none" />
          <line
             class="st2"
             x1="124.37282"
             y1="175.7"
             x2="159.20045"
             y2="175.7"
             id="line4"
             style="fill:#ffffff;stroke:#ffffff;stroke-width:2;stroke-miterlimit:10;stroke-dasharray:none" />
          <line
             class="st2"
             x1="68.415367"
             y1="195.4261"
             x2="104.01394"
             y2="195.4261"
             id="line5"
             style="fill:#ffffff;stroke:#ffffff;stroke-width:2;stroke-miterlimit:10;stroke-dasharray:none" />
          <line
             class="st2"
             x1="124.50396"
             y1="217.55391"
             x2="159.15173"
             y2="217.54608"
             id="line6"
             style="fill:#ffffff;stroke:#ffffff;stroke-width:2;stroke-miterlimit:10;stroke-dasharray:none" />
          <line
             class="st2"
             x1="68.389259"
             y1="235.60001"
             x2="103.92152"
             y2="235.60001"
             id="line7"
             style="fill:#ffffff;stroke:#ffffff;stroke-width:2;stroke-miterlimit:10;stroke-dasharray:none" />
          <line
             class="st2"
             x1="124.34672"
             y1="258"
             x2="159.22656"
             y2="258"
             id="line8"
             style="fill:#ffffff;stroke:#ffffff;stroke-width:2;stroke-miterlimit:10;stroke-dasharray:none" />
          <line
             class="st2"
             x1="68.468773"
             y1="278.94998"
             x2="103.94067"
             y2="278.95001"
             id="line9"
             style="fill:#ffffff;stroke:#ffffff;stroke-width:2;stroke-miterlimit:10;stroke-dasharray:none" />
          <line
             class="st2"
             x1="124.41943"
             y1="299.3884"
             x2="159.24074"
             y2="299.41162"
             id="line10"
             style="fill:#ffffff;stroke:#ffffff;stroke-width:2;stroke-miterlimit:10;stroke-dasharray:none" />
          <line
             class="st2"
             x1="68.437401"
             y1="319.51785"
             x2="103.92322"
             y2="319.48215"
             id="line11"
             style="fill:#ffffff;stroke:#ffffff;stroke-width:2;stroke-miterlimit:10;stroke-dasharray:none" />
          <line
             class="st2"
             x1="124.4199"
             y1="341.70462"
             x2="159.16974"
             y2="341.70462"
             id="line12"
             style="fill:#ffffff;stroke:#ffffff;stroke-width:2;stroke-miterlimit:10;stroke-dasharray:none" />
          <line
             class="st2"
             x1="68.455818"
             y1="378.44849"
             x2="103.92886"
             y2="378.35153"
             id="line14"
             style="fill:#ff0000;fill-opacity:1;stroke:#e00000;stroke-width:2;stroke-miterlimit:10;stroke-dasharray:none;stroke-opacity:1" />
        </g>
      </g>
      <g
         id="g59"
         transform="matrix(0.39376413,0,0,0.32541153,152.78134,15.566077)"
         inkscape:label="Slide"
         style="display:inline;stroke:#292929;stroke-width:1.1;stroke-dasharray:none;stroke-opacity:0.554703">
        <rect
           style="fill:url(#linearGradient364);stroke:#292929;stroke-width:1.1;stroke-dasharray:none;stroke-dashoffset:0;stroke-opacity:0.554703"
           id="rect1-5-3"
           width="37.324211"
           height="16.831907"
           x="366.27402"
           y="-29.28293"
           transform="matrix(8.9497836e-4,0.9999996,-0.99999921,0.00125751,0,0)" />
        <rect
           style="fill:url(#linearGradient365);stroke:#292929;stroke-width:1.1;stroke-dasharray:none;stroke-dashoffset:0;stroke-opacity:0.554703"
           id="rect1-5-3-0"
           width="38.702728"
           height="18.905903"
           x="365.55209"
           y="-194.68179"
           transform="matrix(9.6945588e-4,0.99999953,-0.99999933,0.00116092,0,0)" />
        <rect
           style="fill:url(#linearGradient359);stroke:#292929;stroke-width:1.1;stroke-dasharray:none;stroke-dashoffset:0;stroke-opacity:0.554703"
           id="rect1-3"
           width="49.405113"
           height="53.073784"
           x="-410.27463"
           y="125.62184"
           transform="matrix(-0.00510286,-0.99998698,0.99999842,-0.00178042,0,0)" />
        <rect
           style="fill:url(#linearGradient362);stroke:#292929;stroke-width:1.1;stroke-dasharray:none;stroke-dashoffset:0;stroke-opacity:0.554703"
           id="rect1-5"
           width="49.735374"
           height="55.152664"
           x="360.43259"
           y="-72.859695"
           transform="matrix(0.00220076,0.99999758,-0.99999987,5.1139298e-4,0,0)" />
      </g>
    </g>
  </g>
</svg>
